HIERARCHY
ROOT Hips
{
	OFFSET 0.000000 0.000000 0.000000
	CHANNELS 6 Xposition Yposition Zposition Xrotation Yrotation Zrotation
	JOINT LeftUpLeg_virtual
	{
		OFFSET 0.000000 0.000000 0.000000
		CHANNELS 3 Xrotation Yrotation Zrotation
		JOINT LeftUpLeg
		{
			OFFSET 10.205400 -3.823500 0.155100
			CHANNELS 3 Xrotation Yrotation Zrotation
			JOINT LeftLeg
			{
				OFFSET 0.708757 -12.982077 0.567790
				CHANNELS 3 Xrotation Yrotation Zrotation
				JOINT LeftFoot
				{
					OFFSET -0.708756 -10.717838 -2.184338
					CHANNELS 3 Xrotation Yrotation Zrotation
					JOINT LeftToeBase
					{
						OFFSET 0.108149 -7.191104 7.560241
						CHANNELS 3 Xrotation Yrotation Zrotation
						JOINT LeftToe_End
						{
							OFFSET 0.070230 0.081724 4.490308
							CHANNELS 3 Xrotation Yrotation Zrotation
							End Site
							{
								OFFSET 0 0 0
							}
						}
					}
				}
			}
		}
	}
	JOINT RightUpLeg_virtual
	{
		OFFSET 0.000000 0.000000 0.000000
		CHANNELS 3 Xrotation Yrotation Zrotation
		JOINT RightUpLeg
		{
			OFFSET -10.205400 -3.823500 0.005500
			CHANNELS 3 Xrotation Yrotation Zrotation
			JOINT RightLeg
			{
				OFFSET -0.708756 -12.982134 0.610632
				CHANNELS 3 Xrotation Yrotation Zrotation
				JOINT RightFoot
				{
					OFFSET 0.708754 -10.717769 -1.945823
					CHANNELS 3 Xrotation Yrotation Zrotation
					JOINT RightToeBase
					{
						OFFSET -0.108140 -7.191069 7.372968
						CHANNELS 3 Xrotation Yrotation Zrotation
						JOINT RightToe_End
						{
							OFFSET -0.070227 0.081735 4.479403
							CHANNELS 3 Xrotation Yrotation Zrotation
							End Site
							{
								OFFSET 0 0 0
							}
						}
					}
				}
			}
		}
	}
	JOINT Spine_virtual
	{
		OFFSET 0.000000 0.000000 0.000000
		CHANNELS 3 Xrotation Yrotation Zrotation
		JOINT Spine
		{
			OFFSET 0.000000 6.876099 0.125700
			CHANNELS 3 Xrotation Yrotation Zrotation
			JOINT Spine1
			{
				OFFSET 0.000000 5.730043 0.104720
				CHANNELS 3 Xrotation Yrotation Zrotation
				JOINT Spine1_split
				{
					OFFSET 0.000000 5.730043 0.104720
					CHANNELS 3 Xrotation Yrotation Zrotation
					JOINT Spine2
					{
						OFFSET 0.000000 5.730043 0.104720
						CHANNELS 3 Xrotation Yrotation Zrotation
						JOINT Neck_virtual
						{
							OFFSET 0.000000 0.000000 0.000000
							CHANNELS 3 Xrotation Yrotation Zrotation
							JOINT Neck
							{
								OFFSET 0.000000 10.314075 0.188496
								CHANNELS 3 Xrotation Yrotation Zrotation
								JOINT Head
								{
									OFFSET 0.000000 7.643700 -2.377400
									CHANNELS 3 Xrotation Yrotation Zrotation
									JOINT HeadTop_End
									{
										OFFSET 0.000000 43.788605 -13.619600
										CHANNELS 3 Xrotation Yrotation Zrotation
										End Site
										{
											OFFSET 0 0 0
										}
									}
								}
							}
						}
						JOINT LeftShoulder_virtual
						{
							OFFSET 0.000000 0.000000 0.000000
							CHANNELS 3 Xrotation Yrotation Zrotation
							JOINT LeftShoulder
							{
								OFFSET 2.196100 4.412489 0.087492
								CHANNELS 3 Xrotation Yrotation Zrotation
								JOINT LeftShoulder_split
								{
									OFFSET 2.196100 4.412489 0.087492
									CHANNELS 3 Xrotation Yrotation Zrotation
									JOINT LeftArm
									{
										OFFSET 8.771219 -2.981674 -0.026999
										CHANNELS 3 Xrotation Yrotation Zrotation
										JOINT LeftForeArm
										{
											OFFSET 8.512804 0.000000 -0.000000
											CHANNELS 3 Xrotation Yrotation Zrotation
											JOINT LeftHand
											{
												OFFSET 18.484802 0.000000 -0.000000
												CHANNELS 3 Xrotation Yrotation Zrotation
												End Site
												{
													OFFSET 0 0 0
												}
											}
										}
									}
								}
							}
						}
						JOINT RightShoulder_virtual
						{
							OFFSET 0.000000 0.000000 0.000000
							CHANNELS 3 Xrotation Yrotation Zrotation
							JOINT RightShoulder
							{
								OFFSET -2.196100 4.412496 0.070690
								CHANNELS 3 Xrotation Yrotation Zrotation
								JOINT RightShoulder_split
								{
									OFFSET -2.196100 4.412496 0.070690
									CHANNELS 3 Xrotation Yrotation Zrotation
									JOINT RightArm
									{
										OFFSET -8.771282 -2.981682 -0.094208
										CHANNELS 3 Xrotation Yrotation Zrotation
										JOINT RightForeArm
										{
											OFFSET -8.494598 0.000000 0.000000
											CHANNELS 3 Xrotation Yrotation Zrotation
											JOINT RightHand
											{
												OFFSET -18.483803 0.000000 0.000001
												CHANNELS 3 Xrotation Yrotation Zrotation
												End Site
												{
													OFFSET 0 0 0
												}
											}
										}
									}
								}
							}
						}
					}
				}
			}
		}
	}
}
MOTION
Frames: 4
Frame Time: 0.03333333
-0.269113 28.599323 -0.034292 0.000000 0.000000 0.000000 3.000807 -58.172202 6.374284 -37.006911 4.719542 33.439582 48.223280 -12.858513 -11.597197 -12.623340 -0.319689 -14.395995 -0.327597 1.238431 0.837250 0.000000 0.000000 0.000000 3.000807 -58.172202 6.374284 -31.642340 -2.223530 -36.223232 60.430748 9.462878 -7.242546 -30.088868 -4.049440 28.252992 -0.322805 -0.997449 -0.837187 0.000000 0.000000 0.000000 3.000807 -58.172202 6.374284 11.189903 0.063100 -2.592040 8.434585 0.027685 -5.592316 0.000000 0.000000 0.000000 0.000000 0.000000 0.000000 8.457039 0.027885 -5.591869 -21.555841 25.063371 12.062741 -0.293896 25.465775 -3.209025 0.000000 0.000000 0.000000 8.457039 0.027885 -5.591869 -6.221639 -11.503783 -4.023741 0.000000 0.000000 0.000000 -23.062223 9.568432 -36.639652 0.046068 -43.168903 -0.011185 0.000000 0.000000 0.000000 8.457039 0.027885 -5.591869 -5.488203 10.658258 2.466422 0.000000 0.000000 0.000000 -41.473896 -26.755584 30.079074 -155.044352 68.137161 156.691288 0.000000 0.000000 0.000000 
-0.325174 28.614487 0.056156 0.000000 0.000000 0.000000 1.916058 -58.121911 4.783685 -36.338184 3.692321 33.965267 49.128202 -12.841586 -11.707674 -13.467068 -0.165778 -14.527237 -0.327594 1.238436 0.837250 0.000000 0.000000 0.000000 1.916058 -58.121911 4.783685 -30.449827 -3.355549 -35.786520 59.366570 9.652327 -7.161367 -29.921157 -3.927167 28.122457 -0.322802 -0.997450 -0.837188 0.000000 0.000000 0.000000 1.916058 -58.121911 4.783685 11.070715 -0.010169 -2.739606 8.093931 -0.081175 -5.786258 0.000000 0.000000 0.000000 0.000000 0.000000 0.000000 8.133084 -0.021275 -5.670400 -18.473606 24.513733 14.037479 -1.509212 25.960386 -3.156108 0.000000 0.000000 0.000000 8.133084 -0.021275 -5.670400 -6.237340 -11.503393 -4.274806 0.000000 0.000000 0.000000 -23.016754 9.112616 -36.903645 0.376356 -42.965814 0.192094 0.000000 0.000000 0.000000 8.133084 -0.021275 -5.670400 -5.454978 9.092303 2.875124 0.000000 0.000000 0.000000 -39.552037 -24.929108 32.615280 -147.720777 70.244773 149.319970 0.000000 0.000000 0.000000 
-0.462703 28.626091 0.151770 0.000000 0.000000 0.000000 0.744974 -58.052749 3.092377 -35.666828 3.146586 34.888989 49.833658 -13.398875 -11.853619 -14.324939 -0.045314 -14.527701 -0.327593 1.238438 0.837251 0.000000 0.000000 0.000000 0.744974 -58.052749 3.092377 -28.877610 -4.481308 -35.161759 58.317214 9.658658 -7.090490 -30.020748 -3.886817 28.023143 -0.322802 -0.997450 -0.837187 0.000000 0.000000 0.000000 0.744974 -58.052749 3.092377 10.776716 -0.082572 -2.888661 7.238969 -0.187263 -5.957857 0.000000 0.000000 0.000000 0.000000 0.000000 0.000000 7.302204 -0.146039 -5.752769 -15.262433 23.781312 15.793674 -2.545712 26.126734 -2.432408 0.000000 0.000000 0.000000 7.302204 -0.146039 -5.752769 -6.328942 -11.385476 -4.905907 0.000000 0.000000 0.000000 -22.894429 7.888643 -37.610280 0.611305 -42.459932 0.290295 0.000000 0.000000 0.000000 7.302204 -0.146039 -5.752769 -5.464583 7.537314 3.772391 0.000000 0.000000 0.000000 -37.732530 -22.484995 35.680628 -145.612625 74.178969 146.687301 0.000000 0.000000 0.000000 
-0.520833 28.640434 0.237007 0.000000 0.000000 0.000000 -0.237159 -57.977303 1.616864 -35.393429 2.848121 35.764544 50.491173 -14.090279 -12.008833 -14.931034 -0.001700 -14.292003 -0.327593 1.238431 0.837251 0.000000 0.000000 0.000000 -0.237159 -57.977303 1.616864 -27.559322 -5.351474 -34.569257 57.211744 9.576310 -7.012690 -29.822952 -3.808323 28.049232 -0.322805 -0.997444 -0.837187 0.000000 0.000000 0.000000 -0.237159 -57.977303 1.616864 10.394727 -0.142769 -3.015324 6.101848 -0.226089 -6.006306 0.000000 0.000000 0.000000 0.000000 0.000000 0.000000 6.176568 -0.295604 -5.836879 -13.169293 22.947252 16.636288 -0.497747 24.537646 -0.243715 0.000000 0.000000 0.000000 6.176568 -0.295604 -5.836879 -6.535423 -10.807648 -5.732532 0.000000 0.000000 0.000000 -22.738465 6.153024 -38.622879 0.152915 -41.815750 -0.103712 0.000000 0.000000 0.000000 6.176568 -0.295604 -5.836879 -5.443917 5.937231 4.860427 0.000000 0.000000 0.000000 -36.781351 -19.266258 38.375070 -132.687804 77.994559 133.370754 0.000000 0.000000 0.000000 
